<svg height="427pt" viewBox="-3 0 427 427.80299" width="427pt" xmlns="http://www.w3.org/2000/svg" xmlns:xlink="http://www.w3.org/1999/xlink"><linearGradient id="a"><stop offset=".322" stop-color="#a163f5"/><stop offset=".466" stop-color="#b074ee"/><stop offset=".752" stop-color="#d8a1dd"/><stop offset=".898" stop-color="#efbad3"/></linearGradient><linearGradient id="b" gradientTransform="matrix(1 0 0 -1 -33.298505 475.8)" gradientUnits="userSpaceOnUse" x1="243.7" x2="243.7" xlink:href="#a" y1="31" y2="485.357"/><linearGradient id="c" gradientTransform="matrix(1 0 0 -1 -33.298505 475.8)" gradientUnits="userSpaceOnUse" x1="243.776" x2="243.776" xlink:href="#a" y1="31" y2="485.357"/><path d="m210.402344 0c-115.800782 0-210 94.199219-210 210s94.199218 210 210 210c23.957031-.003906 47.738281-4.128906 70.300781-12.199219l113.5 19.898438c.5625.082031 1.128906.113281 1.699219.101562 3.34375-.023437 6.457031-1.707031 8.304687-4.496093 1.847657-2.792969 2.183594-6.316407.894531-9.40625l-30.898437-72.699219c29.980469-37.144531 46.292969-83.464844 46.199219-131.199219 0-115.800781-94.199219-210-210-210zm177 279.199219c-7.730469 19.613281-18.679688 37.796875-32.402344 53.800781-2.488281 2.871094-3.109375 6.914062-1.597656 10.398438l26.097656 61.402343-98-17.101562c-.5625-.082031-1.128906-.117188-1.699219-.097657-1.191406-.003906-2.375.199219-3.5.597657-21.082031 7.855469-43.398437 11.886719-65.898437 11.902343-104.800782 0-190-85.203124-190-190 0-104.800781 85.199218-190 190-190 104.800781 0 190 85.199219 190 190 .070312 23.644532-4.339844 47.09375-13 69.097657zm0 0" fill="url(#b)"/><path d="m283.5 157.898438-95 90.800781-51-51c-3.890625-3.894531-10.203125-3.894531-14.097656 0-3.894532 3.894531-3.894532 10.207031 0 14.101562l57.898437 57.898438c1.875 1.890625 4.4375 2.9375 7.101563 2.902343 2.582031.023438 5.066406-.984374 6.898437-2.800781l102.101563-97.5c1.910156-1.828125 3.019531-4.34375 3.074218-6.988281.054688-2.644531-.941406-5.203125-2.773437-7.113281-3.847656-3.980469-10.1875-4.117188-14.203125-.300781zm0 0" fill="url(#c)"/></svg>